HIERARCHY
ROOT Hips
{
	OFFSET -3.958830 18.904000 13.208200
	CHANNELS 6 Xposition Yposition Zposition Zrotation Yrotation Xrotation 
	JOINT LHipJoint
	{
		OFFSET 0.000000 0.000000 0.000000
		CHANNELS 3 Zrotation Yrotation Xrotation
		JOINT LeftUpLeg
		{
			OFFSET 1.800000 -1.400000 0.085000
			CHANNELS 3 Zrotation Yrotation Xrotation
			JOINT LeftLeg
			{
				OFFSET 2.215000 -6.000000 0.000000
				CHANNELS 3 Zrotation Yrotation Xrotation
				JOINT LeftFoot
				{
					OFFSET 2.500000 -6.900000 0.000000
					CHANNELS 3 Zrotation Yrotation Xrotation
					JOINT LeftToeBase
					{
						OFFSET 0.200000 -0.500000 1.950000
						CHANNELS 3 Zrotation Yrotation Xrotation
						End Site
						{
							OFFSET 0.000000 0.000000 0.000000
						}
					}
				}
			}
		}
	}
	JOINT RHipJoint
	{
		OFFSET 0.000000 0.000000 0.000000
		CHANNELS 3 Zrotation Yrotation Xrotation
		JOINT RightUpLeg
		{
			OFFSET -1.800000 -1.400000 0.085000
			CHANNELS 3 Zrotation Yrotation Xrotation
			JOINT RightLeg
			{
				OFFSET -2.215000 -6.000000 0.000000
				CHANNELS 3 Zrotation Yrotation Xrotation
				JOINT RightFoot
				{
					OFFSET -2.500000 -6.900000 0.000000
					CHANNELS 3 Zrotation Yrotation Xrotation
					JOINT RightToeBase
					{
						OFFSET -0.200000 -0.500000 1.950000
						CHANNELS 3 Zrotation Yrotation Xrotation
						End Site
						{
							OFFSET 0.000000 0.000000 0.000000
						}
					}
				}
			}
		}
	}
	JOINT LowerBack
	{
		OFFSET 0.000000 0.000000 0.000000
		CHANNELS 3 Zrotation Yrotation Xrotation
		JOINT Spine
		{
			OFFSET -0.087000 1.940000 -0.288900
			CHANNELS 3 Zrotation Yrotation Xrotation
			JOINT Spine1
			{
				OFFSET 0.000000 1.950000 0.060000
				CHANNELS 3 Zrotation Yrotation Xrotation
				JOINT Neck
				{
					OFFSET 0.000000 0.000000 0.000000
					CHANNELS 3 Zrotation Yrotation Xrotation
					JOINT Neck1
					{
						OFFSET 0.000000 1.600000 0.340000
						CHANNELS 3 Zrotation Yrotation Xrotation
						JOINT Head
						{
							OFFSET 0.000000 1.667000 -0.240000
							CHANNELS 3 Zrotation Yrotation Xrotation
							End Site
							{
								OFFSET 0.000000 0.000000 0.000000
							}
						}
					}
				}
				JOINT LeftShoulder
				{
					OFFSET 0.000000 0.000000 0.000000
					CHANNELS 3 Zrotation Yrotation Xrotation
					JOINT LeftArm
					{
						OFFSET 2.700000 1.550000 -0.730000
						CHANNELS 3 Zrotation Yrotation Xrotation
						JOINT LeftForeArm
						{
							OFFSET 5.450000 0.000000 0.000000
							CHANNELS 3 Zrotation Yrotation Xrotation
							JOINT LeftHand
							{
								OFFSET 3.450000 0.000000 0.000000
								CHANNELS 3 Zrotation Yrotation Xrotation
								JOINT LeftHandIndex1
								{
									OFFSET 0.750000 0.000000 0.000000
									CHANNELS 3 Zrotation Yrotation Xrotation
									End Site
									{
										OFFSET 0.000000 0.000000 0.000000
									}
								}
							}
						}
					}
				}
				JOINT RightShoulder
				{
					OFFSET 0.000000 0.000000 0.000000
					CHANNELS 3 Zrotation Yrotation Xrotation
					JOINT RightArm
					{
						OFFSET -2.700000 1.550000 -0.730000
						CHANNELS 3 Zrotation Yrotation Xrotation
						JOINT RightForeArm
						{
							OFFSET -5.450000 0.000000 0.000000
							CHANNELS 3 Zrotation Yrotation Xrotation
							JOINT RightHand
							{
								OFFSET -3.450000 0.000000 0.000000
								CHANNELS 3 Zrotation Yrotation Xrotation
								JOINT RightHandIndex1
								{
									OFFSET -0.750000 0.000000 0.000000
									CHANNELS 3 Zrotation Yrotation Xrotation
									End Site
									{
										OFFSET 0.000000 0.000000 0.000000
									}
								}
							}
						}
					}
				}
			}
		}
	}
}
MOTION
Frames: 6
Frame Time: 0.016667
0.020870 16.847790 -5.695860 -1.543720 -76.934986 -19.111894 -15.447899 11.593533 5.853175 15.375936 -12.778337 -32.101776 -36.782099 25.868108 46.217075 1.687503 13.032842 0.179102 0.938610 0.835840 0.623630 18.386985 -8.779855 2.514104 8.436633 -3.338943 12.194468 -0.204315 -8.981196 39.512408 -1.764734 -7.416673 1.822592 0.392450 -0.004260 0.545390 -2.198403 -4.751748 -8.761076 -20.555165 5.399223 51.896148 -0.657446 5.264933 -2.714878 -0.395689 -11.269754 -9.466652 -32.856799 27.501732 14.476534 -8.387140 16.383350 -25.043650 -5.534941 3.731979 -3.806038 -24.698578 -24.175951 2.299515 -109.062106 -36.196316 42.333717 -3.362771 4.001311 0.603090 -0.033640 0.490300 0.378980 7.021800 3.194187 7.109680 6.858071 -19.480333 -2.377354 -23.765446 24.936934 -1.699343 2.216488 -1.869910 0.159030 0.146470 -0.308400 -0.053230 
0.137250 16.777170 -5.677900 17.169531 -81.978303 -38.270075 -15.166783 10.583259 6.518842 22.146760 -11.050002 -37.004473 -45.361139 31.341722 45.762212 2.007536 14.028321 -0.084940 1.000420 0.916310 0.707920 18.776158 -9.094222 2.047113 3.574015 -3.278928 15.801424 -3.366824 -7.574946 37.937368 -1.769025 -7.401575 1.803533 0.440090 -0.041000 0.573560 -1.944109 -4.445616 -8.933668 -24.601007 7.195533 48.772949 -1.606403 6.761547 2.496721 -0.844242 -11.408191 -11.011414 -31.552539 29.453136 13.273800 -9.907800 18.892870 -26.548710 -6.196651 -1.631801 -2.170983 -17.204965 -22.002529 -0.598788 -125.844835 -37.158319 54.975761 -3.342598 4.124389 0.592220 -0.024760 0.531200 0.377340 7.947107 9.128434 8.866014 1.823855 -22.870959 -1.470495 -18.902821 30.691167 -1.962036 2.051405 -1.911319 0.181780 0.125190 -0.351850 -0.069400 
0.234650 16.703650 -5.671490 45.877598 -82.854654 -65.883287 -15.281341 9.490099 6.982641 27.053767 -8.847375 -41.010043 -52.299744 35.350277 44.205660 2.089028 14.494570 -0.182123 0.998660 0.907810 0.724530 18.768977 -9.666130 1.613266 -0.884685 -2.636203 16.698925 -5.052937 -6.699548 35.314660 -1.667524 -7.310553 1.837470 0.487650 0.017800 0.604820 -1.922343 -5.131027 -9.036717 -28.491098 8.985278 45.324124 -0.197358 8.423484 5.029639 -1.822765 -11.632615 -11.256128 -31.292788 29.011765 10.975811 -11.807590 18.949360 -25.470660 -2.570094 -2.169970 -1.228319 -21.321293 -24.801395 0.669258 -131.561286 -38.167825 61.041371 -3.474822 4.120387 0.560890 0.076470 0.484790 0.372730 5.918271 10.574662 9.009394 -2.515240 -23.439805 0.050793 -11.398466 32.825351 -0.793938 1.904092 -1.993221 0.139200 0.145790 -0.325940 -0.100640 
0.336360 16.655070 -5.666150 55.692298 -82.108369 -75.786071 -15.509948 9.069021 7.221724 29.982258 -7.856824 -42.694576 -52.809048 37.828643 46.415313 2.178953 14.914396 -0.289052 0.992420 0.902370 0.751320 18.598828 -9.809325 1.417507 -3.285035 -2.427530 17.646567 -5.132980 -6.711787 33.700706 -1.624547 -7.307893 1.818295 0.496830 0.021710 0.627050 -2.079461 -5.359370 -9.139215 -30.356733 10.604069 45.250610 0.609649 9.522343 5.905584 -1.416563 -11.555518 -11.879951 -30.079325 26.678404 10.747052 -12.481010 17.916250 -23.643810 1.808923 -3.693798 -1.257651 -25.858499 -29.245828 0.288641 -125.458975 -35.998852 48.890477 -3.501750 4.091923 0.514370 0.123890 0.469530 0.348940 0.921328 12.611550 10.449226 0.368501 -25.346221 -0.890230 -2.211267 31.782656 0.836529 1.782825 -1.991038 0.148550 0.120790 -0.322090 -0.110290 
0.426170 16.643720 -5.657730 53.004964 -81.375470 -72.944840 -15.469080 8.897281 7.401588 32.079572 -7.708060 -44.042134 -52.460071 39.444081 48.530027 2.142505 15.289570 -0.412708 0.977200 0.879140 0.790240 18.693800 -9.751581 1.259604 -4.681886 -2.488440 17.555264 -4.077369 -7.259571 32.889013 -1.591541 -7.339172 1.792486 0.522000 0.050850 0.661760 -1.919317 -5.480770 -9.202323 -31.679130 10.489424 44.459049 -0.693704 9.744847 9.445446 -0.782191 -11.149576 -12.975272 -27.126003 24.535684 10.969139 -13.755250 18.106950 -23.237870 5.272881 -6.666660 -0.615578 -26.449558 -31.192026 -1.488372 -128.740618 -41.873607 57.366738 -3.647562 4.027599 0.511910 0.207790 0.450140 0.310600 -4.272006 15.023167 12.055733 5.943570 -21.961438 -2.768829 3.369463 24.924216 0.784666 1.659713 -1.728121 0.110330 0.129370 -0.284280 -0.162280 
0.496120 16.663200 -5.656420 55.120412 -80.639020 -74.919160 -15.530716 8.828228 7.423641 33.443940 -7.141295 -43.374962 -52.215452 40.337584 49.405798 2.125755 15.388772 -0.455500 0.996280 0.901430 0.837230 18.649495 -9.802476 1.136676 -6.117492 -2.182401 17.126627 -3.292731 -7.543534 32.340933 -1.575805 -7.295377 1.795132 0.543160 0.035540 0.662800 -1.897821 -5.669734 -9.210073 -33.551569 11.171051 43.209008 -0.573076 9.839985 11.961625 -0.231336 -10.959501 -14.091068 -26.104900 23.228712 11.386902 -14.160670 17.686980 -23.429470 8.021237 -9.351295 0.724284 -27.860200 -30.209850 -4.293067 -124.086149 -43.608380 51.962387 -3.666059 3.936502 0.525070 0.215100 0.470860 0.296700 -8.189982 17.755617 13.321647 9.681491 -20.276863 -4.493797 9.186204 20.466676 0.084568 1.612701 -1.487336 0.103900 0.148300 -0.289500 -0.183610 
